<?xml version="1.0" standalone="no"?>
<!DOCTYPE svg PUBLIC "-//W3C//DTD SVG 20010904//EN"
 "http://www.w3.org/TR/2001/REC-SVG-20010904/DTD/svg10.dtd">
<svg version="1.0" xmlns="http://www.w3.org/2000/svg"
 width="512.000000pt" height="512.000000pt" viewBox="0 0 512.000000 512.000000"
 preserveAspectRatio="xMidYMid meet">

<g transform="translate(0.000000,512.000000) scale(0.100000,-0.100000)"
fill="#000000" stroke="none">
<path d="M0 2560 l0 -2550 2555 0 2555 0 0 2550 0 2550 -2555 0 -2555 0 0
-2550z m2308 2255 c53 -23 79 -51 103 -114 20 -51 22 -84 30 -391 11 -465 29
-1753 29 -2114 l0 -299 113 6 c94 5 1137 84 1362 103 45 4 66 3 60 -3 -19 -19
-1056 -436 -1435 -578 -63 -24 -168 -64 -232 -89 -150 -59 -185 -59 -474 -5
-121 22 -312 58 -425 79 -241 45 -278 54 -339 85 -83 42 -124 110 -141 232 -8
55 -9 460 -6 1343 5 1400 2 1322 70 1412 41 54 119 101 200 122 179 45 762
190 827 206 95 23 208 25 258 5z m802 -2140 c496 -68 910 -198 1221 -384 136
-81 206 -133 310 -235 316 -307 355 -668 108 -996 -216 -286 -651 -525 -1194
-655 -1023 -246 -2220 -88 -2900 383 -110 76 -289 259 -341 347 -77 133 -106
233 -105 375 1 296 204 581 549 774 100 56 142 73 141 59 0 -4 -39 -33 -87
-63 -102 -65 -253 -210 -309 -297 -216 -334 -112 -689 287 -975 105 -74 338
-191 492 -246 217 -77 487 -137 758 -169 203 -24 658 -24 865 1 785 92 1392
392 1581 783 153 315 19 651 -360 904 -327 219 -795 362 -1356 413 -25 2 16 3
90 1 74 -3 187 -11 250 -20z"/>
<path d="M1956 4678 c-27 -38 12 -81 53 -58 25 13 27 42 5 64 -21 22 -40 20
-58 -6z"/>
<path d="M2160 4563 c-14 -2 -104 -19 -200 -38 -96 -19 -310 -57 -475 -85
-330 -56 -376 -68 -394 -106 -17 -38 -16 -2589 2 -2624 7 -14 24 -30 38 -37
13 -7 219 -35 457 -62 238 -28 472 -56 521 -62 112 -15 142 -6 167 54 25 59
30 438 14 1117 -7 289 -15 817 -19 1172 -4 410 -10 650 -16 656 -13 13 -63 21
-95 15z m-313 -1169 c167 -81 254 -255 226 -453 -22 -151 -87 -298 -213 -489
-78 -118 -185 -252 -206 -259 -14 -5 -159 216 -225 342 -98 185 -150 408 -128
544 27 167 153 307 314 348 74 18 148 8 232 -33z"/>
<path d="M1581 3239 c-151 -61 -207 -268 -104 -388 95 -112 250 -113 345 -1
110 128 57 330 -101 386 -42 15 -106 17 -140 3z"/>
</g>
</svg>
